<?xml version="1.0" encoding="utf-8"?>
<!-- Generator: Adobe Illustrator 17.1.0, SVG Export Plug-In . SVG Version: 6.00 Build 0)  -->
<!DOCTYPE svg PUBLIC "-//W3C//DTD SVG 1.1//EN" "http://www.w3.org/Graphics/SVG/1.1/DTD/svg11.dtd">
<svg version="1.1" id="Layer_1" xmlns="http://www.w3.org/2000/svg" xmlns:xlink="http://www.w3.org/1999/xlink" x="0px" y="0px"
	 viewBox="0 0 190 108" enable-background="new 0 0 190 108" xml:space="preserve">
<path fill="#FFFFFF" d="M22.1,85l19.8-59.7l4.7,1.1L26.9,85.3c-3.4,10.3-8.8,17.9-17.4,22.1l-2.3-3.9C14.7,99.7,19.9,92,22.1,85
	L22.1,85z M23.2,81.7L22.1,85l1.3-2.6L23.2,81.7z M21.6,76.8L5.1,25.3l-5.1,1l19.3,57.2L21.6,76.8z M61.1,87.6
	C59.4,81.7,59,74.3,59,66.2V1.4l4.8-0.7v65.8c0,7.5,0.4,15.3,2.1,21.2H61.1z M120.4,52.2v-1.5c0-16.5-7.9-21.9-17.6-21.9
	c-6.2,0-12,1-17.2,4l-1.8-4.2c5.5-3.3,12.4-4.2,19.5-4.2c12.5,0,21.9,7.3,21.9,25.1v22.1c0,5.3,0.6,11,1.9,15.9l-4.2,0.7
	c-1.2-3.3-1.9-7.1-2.2-11.3L120.4,52.2z M118,77l0-2.1c-3.5,6.3-8.2,9.8-16.6,9.8c-12,0-16.2-4-16.2-13.2c0-11.4,11-13.4,32.4-14.6
	l-0.1-4.5c-26.2,1.2-37.2,4.9-37.2,19c0,10.4,4.6,17.7,20.4,17.7c9.1,0,14-3.1,17.7-8.1C118.1,79.7,118.1,78.4,118,77z M147.5,0.6
	l-5,0.7v84.3c2,0.5,3.4,1,5,1.4V0.6z M168.2,24.4c-8.6,0-13.8,2.6-17.6,7.6v6.4c3.9-6.2,8.5-9.6,16.9-9.6c13.4,0,17.7,10.5,17.7,28
	c0,23.6-9.1,28-19.8,28c-5.3,0-10.3-0.3-14.9-1.6v4.6c4.8,0.9,9.9,1.3,14.9,1.3c12.2,0,24.6-5.1,24.6-32.4
	C190,36.5,183.8,24.4,168.2,24.4z"/>
</svg>
