<?xml version="1.0" encoding="utf-8"?>
<!-- Generator: Adobe Illustrator 17.1.0, SVG Export Plug-In . SVG Version: 6.00 Build 0)  -->
<!DOCTYPE svg PUBLIC "-//W3C//DTD SVG 1.1//EN" "http://www.w3.org/Graphics/SVG/1.1/DTD/svg11.dtd">
<svg version="1.1" id="Layer_1" xmlns="http://www.w3.org/2000/svg" xmlns:xlink="http://www.w3.org/1999/xlink" x="0px" y="0px"
	 viewBox="0 0 1280 800" enable-background="new 0 0 1280 800" xml:space="preserve">
<path fill="#FFFFFF" d="M148.9,608.8l133.4-402.2l31.7,7.4L181.2,610.9C158.3,680.3,121.9,731.5,64,759.7l-15.5-26.3
	C99,707.9,134.1,656,148.9,608.8L148.9,608.8z M145.5,553.6L34.4,206.7L0,213.4l130,385.3L145.5,553.6z M411.6,626.4
	c-11.5-39.7-14.1-89.6-14.1-144.2V45.6l32.3-4.7v443.3c0,50.5,2.7,103.1,14.1,142.8h-32.3V626.4z M811.1,387.9v-10.1
	c0-111.2-53.2-147.5-118.6-147.5c-41.8,0-80.8,6.7-115.9,26.9l-12.1-28.3c37.1-22.2,83.5-28.3,131.4-28.3
	c84.2,0,147.5,49.2,147.5,169.1v148.9c0,35.7,4,74.1,12.8,107.1l-28.3,4.7c-8.1-22.2-12.8-47.8-14.8-76.1L811.1,387.9z M794.9,554.9
	v-14.1c-23.6,42.4-55.2,66-111.8,66c-80.8,0-109.1-26.9-109.1-88.9c0-76.8,74.1-90.3,218.3-98.4l-0.7-30.3
	c-176.5,8.1-250.6,33-250.6,128c0,70.1,31,119.2,137.4,119.2c61.3,0,94.3-20.9,119.2-54.6C795.6,573.1,795.6,564.4,794.9,554.9z
	 M993.7,40.3L960,45v567.9c13.5,3.4,22.9,6.7,33.7,9.4V40.3z M1133.1,200.6c-57.9,0-93,17.5-118.6,51.2v43.1
	c26.3-41.8,57.3-64.7,113.9-64.7c90.3,0,119.2,70.7,119.2,188.6c0,159-61.3,188.6-133.4,188.6c-35.7,0-69.4-2-100.4-10.8v31
	c32.3,6.1,66.7,8.8,100.4,8.8c82.2,0,165.7-34.4,165.7-218.3C1280,282.1,1238.2,200.6,1133.1,200.6z"/>
</svg>
